<?xml version="1.0" encoding="UTF-8"?>
<svg version="1.1" xmlns="http://www.w3.org/2000/svg" width="32" height="32">
<path d="M0 0 C4.47920597 -0.02682159 8.95825351 -0.04675177 13.4375 -0.0625 C14.71689453 -0.07087891 15.99628906 -0.07925781 17.31445312 -0.08789062 C19.13686523 -0.09272461 19.13686523 -0.09272461 20.99609375 -0.09765625 C22.12200928 -0.10289307 23.2479248 -0.10812988 24.40795898 -0.11352539 C27 0 27 0 28 1 C28.08669432 2.4887186 28.10703494 3.981445 28.09765625 5.47265625 C28.09443359 6.37177734 28.09121094 7.27089844 28.08789062 8.19726562 C28.07951172 9.14279297 28.07113281 10.08832031 28.0625 11.0625 C28.05798828 12.01189453 28.05347656 12.96128906 28.04882812 13.93945312 C28.0370011 16.29303065 28.02052025 18.64648477 28 21 C23.70834738 21.02891949 19.41671964 21.04677118 15.125 21.0625 C13.90167969 21.07087891 12.67835937 21.07925781 11.41796875 21.08789062 C9.66806641 21.09272461 9.66806641 21.09272461 7.8828125 21.09765625 C6.26463623 21.10551147 6.26463623 21.10551147 4.61376953 21.11352539 C2 21 2 21 0 20 C0 13.4 0 6.8 0 0 Z " fill="#D9D942" transform="translate(2,5)"/>
<path d="M0 0 C4.47920597 -0.02682159 8.95825351 -0.04675177 13.4375 -0.0625 C14.71689453 -0.07087891 15.99628906 -0.07925781 17.31445312 -0.08789062 C19.13686523 -0.09272461 19.13686523 -0.09272461 20.99609375 -0.09765625 C22.12200928 -0.10289307 23.2479248 -0.10812988 24.40795898 -0.11352539 C27 0 27 0 28 1 C28.08669432 2.4887186 28.10703494 3.981445 28.09765625 5.47265625 C28.09443359 6.37177734 28.09121094 7.27089844 28.08789062 8.19726562 C28.07951172 9.14279297 28.07113281 10.08832031 28.0625 11.0625 C28.05798828 12.01189453 28.05347656 12.96128906 28.04882812 13.93945312 C28.0370011 16.29303065 28.02052025 18.64648477 28 21 C23.70834738 21.02891949 19.41671964 21.04677118 15.125 21.0625 C13.90167969 21.07087891 12.67835937 21.07925781 11.41796875 21.08789062 C9.66806641 21.09272461 9.66806641 21.09272461 7.8828125 21.09765625 C6.26463623 21.10551147 6.26463623 21.10551147 4.61376953 21.11352539 C2 21 2 21 0 20 C0 13.4 0 6.8 0 0 Z M3 1 C3 1.66 3 2.32 3 3 C2.34 3 1.68 3 1 3 C1 3.90363281 1 4.80726562 1 5.73828125 C1 10.15885417 1 14.57942708 1 19 C2.22976562 18.98839844 3.45953125 18.97679688 4.7265625 18.96484375 C6.35937347 18.95545978 7.9921861 18.94636023 9.625 18.9375 C10.83736328 18.92493164 10.83736328 18.92493164 12.07421875 18.91210938 C16.50341918 18.8941045 20.63883424 19.10377338 25 20 C26.2062252 16.38132441 26.10816918 13.07493749 26.0625 9.3125 C26.05798828 8.61060547 26.05347656 7.90871094 26.04882812 7.18554688 C26.03706927 5.45699462 26.01913454 3.72848635 26 2 C22.48728687 5.26627448 22.48728687 5.26627448 19.9375 9.25 C19.628125 9.8275 19.31875 10.405 19 11 C16.94140625 11.609375 16.94140625 11.609375 15 12 C15.6496875 11.37351562 16.299375 10.74703125 16.96875 10.1015625 C17.8040625 9.28429688 18.639375 8.46703125 19.5 7.625 C20.3353125 6.81289062 21.170625 6.00078125 22.03125 5.1640625 C24.22431286 3.2410341 24.22431286 3.2410341 24 1 C17.07 1 10.14 1 3 1 Z " fill="#5C5C45" transform="translate(2,5)"/>
<path d="M0 0 C1.18613892 0.00785522 1.18613892 0.00785522 2.39624023 0.01586914 C3.67724609 0.02070312 3.67724609 0.02070312 4.98413086 0.02563477 C5.88196289 0.03401367 6.77979492 0.04239258 7.70483398 0.05102539 C8.6065332 0.05553711 9.50823242 0.06004883 10.43725586 0.06469727 C12.67234712 0.07652315 14.90730835 0.09300319 17.14233398 0.11352539 C17.14233398 3.11352539 17.14233398 3.11352539 15.17358398 5.37524414 C13.92061523 6.57600586 13.92061523 6.57600586 12.64233398 7.80102539 C11.80702148 8.60926758 10.97170898 9.41750977 10.11108398 10.25024414 C9.46139648 10.86512695 8.81170898 11.48000977 8.14233398 12.11352539 C7.81233398 11.45352539 7.48233398 10.79352539 7.14233398 10.11352539 C6.48233398 10.11352539 5.82233398 10.11352539 5.14233398 10.11352539 C5.14233398 9.45352539 5.14233398 8.79352539 5.14233398 8.11352539 C4.48233398 8.11352539 3.82233398 8.11352539 3.14233398 8.11352539 C3.14233398 7.45352539 3.14233398 6.79352539 3.14233398 6.11352539 C2.48233398 6.11352539 1.82233398 6.11352539 1.14233398 6.11352539 C1.14233398 5.45352539 1.14233398 4.79352539 1.14233398 4.11352539 C0.48233398 4.11352539 -0.17766602 4.11352539 -0.85766602 4.11352539 C-0.85766602 3.45352539 -0.85766602 2.79352539 -0.85766602 2.11352539 C-1.51766602 1.78352539 -2.17766602 1.45352539 -2.85766602 1.11352539 C-1.85766602 0.11352539 -1.85766602 0.11352539 0 0 Z " fill="#E3E353" transform="translate(7.857666015625,5.886474609375)"/>
<path d="M0 0 C2.57875218 1.03150087 3.78770365 1.64971102 5.25 4.0625 C6 6 6 6 6 7 C6.99 6.67 7.98 6.34 9 6 C11.475 9.465 11.475 9.465 14 13 C9.38 13 4.76 13 0 13 C0.33 12.01 0.66 11.02 1 10 C0.69208308 8.328451 0.35613097 6.66194453 0 5 C-0.0370279 3.3337447 -0.04759962 1.66598681 0 0 Z " fill="#E0E04C" transform="translate(3,11)"/>
<path d="M0 0 C0.33 0 0.66 0 1 0 C1 4.95 1 9.9 1 15 C0.67 14.34 0.34 13.68 0 13 C-0.66 13 -1.32 13 -2 13 C-2 12.34 -2 11.68 -2 11 C-2.66 11 -3.32 11 -4 11 C-4 10.34 -4 9.68 -4 9 C-4.66 9 -5.32 9 -6 9 C-4.47300326 5.56425733 -2.44973747 2.84485642 0 0 Z " fill="#DEDE63" transform="translate(27,7)"/>
<path d="M0 0 C0.66 0 1.32 0 2 0 C3.8588679 2.20810975 5.37694278 4.6081262 7 7 C3.7 7 0.4 7 -3 7 C-2.25 2.25 -2.25 2.25 0 0 Z " fill="#E0E05C" transform="translate(10,17)"/>
<path d="M0 0 C0.99 0 1.98 0 3 0 C3 0.66 3 1.32 3 2 C3.66 2 4.32 2 5 2 C5 2.66 5 3.32 5 4 C5.66 4 6.32 4 7 4 C7 4.66 7 5.32 7 6 C7.66 6 8.32 6 9 6 C9 6.66 9 7.32 9 8 C7.37373596 9.38232443 5.7074998 10.71937515 4 12 C3.34 11.67 2.68 11.34 2 11 C2.66 9.68 3.32 8.36 4 7 C2.35 5.02 0.7 3.04 -1 1 C-0.67 0.67 -0.34 0.34 0 0 Z " fill="#A7A71B" transform="translate(4,8)"/>
<path d="M0 0 C3.76254239 0.4028418 5.38707847 2.08704178 7.8125 4.875 C8.43769531 5.57367188 9.06289062 6.27234375 9.70703125 6.9921875 C10.13371094 7.65476562 10.56039063 8.31734375 11 9 C10.67 9.99 10.34 10.98 10 12 C9.67 11.34 9.34 10.68 9 10 C8.34 10 7.68 10 7 10 C7 9.34 7 8.68 7 8 C6.34 8 5.68 8 5 8 C5 7.34 5 6.68 5 6 C4.34 6 3.68 6 3 6 C3 5.34 3 4.68 3 4 C2.34 4 1.68 4 1 4 C1 3.34 1 2.68 1 2 C0.34 1.67 -0.32 1.34 -1 1 C-0.67 0.67 -0.34 0.34 0 0 Z " fill="#DFDF60" transform="translate(6,6)"/>
<path d="M0 0 C1.32 0 2.64 0 4 0 C4 0.66 4 1.32 4 2 C4.66 2 5.32 2 6 2 C6 2.66 6 3.32 6 4 C6.66 4 7.32 4 8 4 C8.33 5.32 8.66 6.64 9 8 C6 8 6 8 4.39453125 6.50390625 C3.61142578 5.54291016 3.61142578 5.54291016 2.8125 4.5625 C2.28269531 3.92441406 1.75289062 3.28632813 1.20703125 2.62890625 C0 1 0 1 0 0 Z " fill="#BBBB34" transform="translate(19,16)"/>
<path d="M0 0 C2.31 0 4.62 0 7 0 C7 0.99 7 1.98 7 3 C5 4.6875 5 4.6875 3 6 C1.5 4.6875 1.5 4.6875 0 3 C0 2.01 0 1.02 0 0 Z " fill="#E8E844" transform="translate(18,6)"/>
<path d="M0 0 C0.66 0 1.32 0 2 0 C3.2890625 1.53125 3.2890625 1.53125 4.625 3.5 C5.07101563 4.1496875 5.51703125 4.799375 5.9765625 5.46875 C6.31429688 5.9740625 6.65203125 6.479375 7 7 C5.68 7 4.36 7 3 7 C0.75 4 0.75 4 -1 1 C-0.67 0.67 -0.34 0.34 0 0 Z " fill="#D8D876" transform="translate(18,17)"/>
<path d="M0 0 C0.66 0 1.32 0 2 0 C3.2890625 1.53125 3.2890625 1.53125 4.625 3.5 C5.07101563 4.1496875 5.51703125 4.799375 5.9765625 5.46875 C6.31429688 5.9740625 6.65203125 6.479375 7 7 C3.7972297 6.41767813 3.21687108 6.30981583 1.25 3.5 C0 1 0 1 0 0 Z " fill="#D6D67C" transform="translate(10,17)"/>
</svg>
